<svg version="1.1" viewBox="0.0 0.0 960.0 540.0" fill="none" stroke="none" stroke-linecap="square" stroke-miterlimit="10" xmlns:xlink="http://www.w3.org/1999/xlink" xmlns="http://www.w3.org/2000/svg"><clipPath id="p.0"><path d="m0 0l960.0 0l0 540.0l-960.0 0l0 -540.0z" clip-rule="nonzero"/></clipPath><g clip-path="url(#p.0)"><path fill="#000000" fill-opacity="0.0" d="m0 0l960.0 0l0 540.0l-960.0 0z" fill-rule="evenodd"/><path fill="#000000" fill-opacity="0.0" d="m0.0058679855 116.28602l759.1996 0l0 189.10632l-759.1996 0z" fill-rule="evenodd"/><path fill="#000000" d="m18.302744 259.686l0 -100.218735l12.3125 0l0 57.15625l29.109373 -29.53125l15.9375 0l-27.765625 26.921875l30.5625 45.67186l-15.171875 0l-24.0 -37.124985l-8.671873 8.34375l0 28.781235l-12.3125 0z" fill-rule="nonzero"/><path fill="#000000" d="m296.32 238.01414l12.15625 -1.90625q1.03125 7.3125 5.703125 11.203125q4.6875 3.890625 13.109375 3.890625q8.46875 0 12.5625 -3.4375q4.109375 -3.453125 4.109375 -8.109375q0 -4.171875 -3.625 -6.5625q-2.53125 -1.640625 -12.578125 -4.171875q-13.53125 -3.421875 -18.765625 -5.90625q-5.21875 -2.5 -7.921875 -6.90625q-2.703125 -4.40625 -2.703125 -9.75q0 -4.84375 2.21875 -8.984375q2.21875 -4.140625 6.046875 -6.875q2.875 -2.109375 7.828125 -3.578125q4.953125 -1.46875 10.640625 -1.46875q8.53125 0 14.984375 2.46875q6.46875 2.453125 9.546875 6.65625q3.078125 4.203125 4.234375 11.234375l-12.03125 1.640625q-0.8125 -5.59375 -4.75 -8.734375q-3.921875 -3.15625 -11.109375 -3.15625q-8.46875 0 -12.09375 2.8125q-3.625 2.796875 -3.625 6.5625q0 2.390625 1.5 4.296875q1.515625 1.984375 4.71875 3.28125q1.84375 0.6875 10.875 3.140625q13.0625 3.5 18.21875 5.71875q5.15625 2.21875 8.09375 6.453125q2.9375 4.234375 2.9375 10.53125q0 6.15625 -3.59375 11.59375q-3.578125 5.421875 -10.34375 8.406235q-6.765625 2.96875 -15.3125 2.96875q-14.15625 0 -21.578125 -5.8749847q-7.40625 -5.890625 -9.453125 -17.4375z" fill-rule="nonzero"/><path fill="#000000" fill-opacity="0.0" d="m43.9309 0.003998487l291.076 0l0 540.0019l-291.076 0z" fill-rule="evenodd"/><path fill="#000000" d="m135.41527 275.86334q-25.515617 -9.34375 -37.828117 -26.65625q-12.296875 -17.328125 -12.296875 -41.484375q0 -36.453125 26.203125 -61.28125q26.203117 -24.84375 69.71874 -24.84375q43.75 0 70.40625 25.40625q26.67189 25.40625 26.67189 61.859375q0 23.25 -12.203125 40.453125q-12.187515 17.203125 -37.01564 26.546875q30.750015 10.015625 46.812515 32.34375q16.078125 22.328125 16.078125 53.328125q0 42.828125 -30.3125 72.0q-30.312515 29.171875 -79.750015 29.171875q-49.453125 0 -79.76562 -29.28125q-30.296875 -29.28125 -30.296875 -73.03125q0 -32.59375 16.515625 -54.578125q16.53125 -21.984375 47.062492 -29.953125zm-8.203117 -69.5q0 23.6875 15.265617 38.734375q15.265625 15.03125 39.65625 15.03125q23.6875 0 38.84375 -14.921875q15.15625 -14.921875 15.15625 -36.5625q0 -22.5625 -15.609375 -37.9375q-15.609375 -15.390625 -38.859375 -15.390625q-23.46875 0 -38.96875 15.046875q-15.484367 15.03125 -15.484367 36.0zm-13.21875 154.25q0 17.546875 8.3125 33.953125q8.328117 16.40625 24.734367 25.40625q16.40625 9.0 35.3125 9.0q29.390625 0 48.53125 -18.90625q19.140625 -18.90625 19.140625 -48.078125q0 -29.625 -19.71875 -48.984375q-19.703125 -19.375 -49.3125 -19.375q-28.9375 0 -47.96875 19.140625q-19.031242 19.140625 -19.031242 47.84375z" fill-rule="nonzero"/><path fill="#000000" fill-opacity="0.0" d="m285.81412 281.483l688.1887 0l0 189.10632l-688.1887 0z" fill-rule="evenodd"/><path fill="#000000" d="m315.39224 424.883l-11.421875 0l0 -100.21875l12.3125 0l0 35.75q7.796875 -9.765625 19.890625 -9.765625q6.703125 0 12.671875 2.703125q5.984375 2.6875 9.84375 7.578125q3.875 4.890625 6.0625 11.796875q2.1875 6.90625 2.1875 14.765625q0 18.65625 -9.234375 28.84375q-9.234375 10.1875 -22.140625 10.1875q-12.859375 0 -20.171875 -10.734375l0 9.09375zm-0.140625 -36.84375q0 13.046875 3.5625 18.859375q5.8125 9.5 15.71875 9.5q8.0625 0 13.9375 -7.0q5.890625 -7.0 5.890625 -20.890625q0 -14.21875 -5.640625 -20.984375q-5.640625 -6.765625 -13.640625 -6.765625q-8.0625 0 -13.953125 7.015625q-5.875 7.0 -5.875 20.265625zm61.73633 15.171875l12.15625 -1.90625q1.03125 7.3125 5.703125 11.203125q4.6875 3.890625 13.109375 3.890625q8.46875 0 12.5625 -3.4375q4.109375 -3.453125 4.109375 -8.109375q0 -4.171875 -3.625 -6.5625q-2.53125 -1.640625 -12.578125 -4.171875q-13.53125 -3.421875 -18.765625 -5.90625q-5.21875 -2.5 -7.921875 -6.90625q-2.703125 -4.40625 -2.703125 -9.75q0 -4.84375 2.21875 -8.984375q2.21875 -4.140625 6.046875 -6.875q2.875 -2.109375 7.828125 -3.578125q4.953125 -1.46875 10.640625 -1.46875q8.53125 0 14.984375 2.46875q6.46875 2.453125 9.546875 6.65625q3.078125 4.203125 4.234375 11.234375l-12.03125 1.640625q-0.8125 -5.59375 -4.75 -8.734375q-3.921875 -3.15625 -11.109375 -3.15625q-8.46875 0 -12.09375 2.8125q-3.625 2.796875 -3.625 6.5625q0 2.390625 1.5 4.296875q1.515625 1.984375 4.71875 3.28125q1.84375 0.6875 10.875 3.140625q13.0625 3.5 18.21875 5.71875q5.15625 2.21875 8.09375 6.453125q2.9375 4.234375 2.9375 10.53125q0 6.15625 -3.59375 11.59375q-3.578125 5.421875 -10.34375 8.40625q-6.765625 2.96875 -15.3125 2.96875q-14.15625 0 -21.578125 -5.875q-7.40625 -5.890625 -9.453125 -17.4375zm124.609375 -1.703125l12.7187195 1.5625q-2.9999695 11.140625 -11.1405945 17.296875q-8.140625 6.15625 -20.78125 6.15625q-15.921875 0 -25.265625 -9.8125q-9.328125 -9.8125 -9.328125 -27.515625q0 -18.3125 9.4375 -28.421875q9.4375 -10.125 24.46875 -10.125q14.5625 0 23.78125 9.90625q9.2343445 9.90625 9.2343445 27.890625q0 1.09375 -0.0625 3.28125l-54.140594 0q0.6875 11.96875 6.765625 18.328125q6.078125 6.34375 15.171875 6.34375q6.765625 0 11.546875 -3.546875q4.796875 -3.5625 7.59375 -11.34375zm-40.390625 -19.890625l40.53125 0q-0.8125 -9.171875 -4.640625 -13.75q-5.890625 -7.109375 -15.25 -7.109375q-8.484375 0 -14.265625 5.671875q-5.765625 5.671875 -6.375 15.1875zm68.4238 43.265625l0 -72.59375l11.078125 0l0 11.0q4.234375 -7.71875 7.8125 -10.171875q3.59375 -2.46875 7.90625 -2.46875q6.21875 0 12.640625 3.953125l-4.234375 11.421875q-4.515625 -2.671875 -9.015625 -2.671875q-4.046875 0 -7.265625 2.4375q-3.203125 2.421875 -4.5625 6.734375q-2.0625 6.5625 -2.0625 14.34375l0 38.015625l-12.296875 0zm66.91797 0l-27.609375 -72.59375l12.984375 0l15.59375 43.46875q2.515625 7.046875 4.640625 14.625q1.640625 -5.734375 4.578125 -13.796875l16.140625 -44.296875l12.640625 0l-27.484375 72.59375l-11.484375 0zm97.21875 -8.953125q-6.84375 5.8125 -13.171875 8.203125q-6.3125 2.390625 -13.5625 2.390625q-11.96875 0 -18.390625 -5.84375q-6.421875 -5.84375 -6.421875 -14.9375q0 -5.328125 2.421875 -9.734375q2.421875 -4.421875 6.359375 -7.078125q3.9375 -2.671875 8.859375 -4.03125q3.609375 -0.96875 10.9375 -1.859375q14.890625 -1.765625 21.9375 -4.234375q0.0625 -2.53125 0.0625 -3.203125q0 -7.53125 -3.484375 -10.609375q-4.71875 -4.15625 -14.015625 -4.15625q-8.671875 0 -12.8125 3.046875q-4.140625 3.03125 -6.125 10.75l-12.03125 -1.640625q1.640625 -7.71875 5.40625 -12.46875q3.765625 -4.75 10.875 -7.3125q7.109375 -2.5625 16.46875 -2.5625q9.296875 0 15.109375 2.1875q5.8125 2.1875 8.546875 5.5q2.734375 3.3125 3.828125 8.375q0.609375 3.140625 0.609375 11.34375l0 16.40625q0 17.15625 0.78125 21.703125q0.796875 4.546875 3.125 8.71875l-12.859375 0q-1.90625 -3.828125 -2.453125 -8.953125zm-1.03125 -27.484375q-6.703125 2.734375 -20.09375 4.65625q-7.59375 1.09375 -10.734375 2.46875q-3.140625 1.359375 -4.859375 3.984375q-1.703125 2.625 -1.703125 5.84375q0 4.921875 3.71875 8.203125q3.734375 3.28125 10.90625 3.28125q7.109375 0 12.640625 -3.109375q5.546875 -3.109375 8.140625 -8.515625q1.984375 -4.171875 1.984375 -12.296875l0 -4.515625zm58.376953 25.4375l1.78125 10.859375q-5.203125 1.09375 -9.296875 1.09375q-6.703125 0 -10.390625 -2.109375q-3.6875 -2.125 -5.203125 -5.578125q-1.5 -3.453125 -1.5 -14.53125l0 -41.765625l-9.015625 0l0 -9.5625l9.015625 0l0 -17.984375l12.234375 -7.375l0 25.359375l12.375 0l0 9.5625l-12.375 0l0 42.453125q0 5.265625 0.640625 6.765625q0.65625 1.5 2.125 2.390625q1.46875 0.890625 4.203125 0.890625q2.0625 0 5.40625 -0.46875zm7.4589844 -25.296875q0 -20.171875 11.203125 -29.875q9.359375 -8.0625 22.828125 -8.0625q14.96875 0 24.46875 9.8125q9.515625 9.796875 9.515625 27.09375q0 14.015625 -4.203125 22.046875q-4.203125 8.03125 -12.25 12.484375q-8.03125 4.4375 -17.53125 4.4375q-15.234375 0 -24.640625 -9.765625q-9.390625 -9.78125 -9.390625 -28.171875zm12.640625 0q0 13.9375 6.078125 20.875q6.09375 6.9375 15.3125 6.9375q9.171875 0 15.25 -6.96875q6.078125 -6.96875 6.078125 -21.25q0 -13.46875 -6.125 -20.40625q-6.109375 -6.9375 -15.203125 -6.9375q-9.21875 0 -15.3125 6.90625q-6.078125 6.890625 -6.078125 20.84375zm69.6582 36.296875l0 -72.59375l11.078125 0l0 11.0q4.234375 -7.71875 7.8125 -10.171875q3.59375 -2.46875 7.90625 -2.46875q6.21875 0 12.640625 3.953125l-4.234375 11.421875q-4.515625 -2.671875 -9.015625 -2.671875q-4.046875 0 -7.265625 2.4375q-3.203125 2.421875 -4.5625 6.734375q-2.0625 6.5625 -2.0625 14.34375l0 38.015625l-12.296875 0zm46.214844 27.953125l-1.375 -11.546875q4.03125 1.09375 7.046875 1.09375q4.09375 0 6.546875 -1.375q2.46875 -1.359375 4.046875 -3.8125q1.15625 -1.859375 3.765625 -9.171875q0.328125 -1.015625 1.09375 -3.0l-27.5625 -72.734375l13.265625 0l15.109375 42.03125q2.9375 8.0 5.265625 16.828125q2.125 -8.484375 5.0625 -16.546875l15.515625 -42.3125l12.296875 0l-27.609375 73.828125q-4.453125 11.953125 -6.90625 16.46875q-3.28125 6.09375 -7.53125 8.921875q-4.234375 2.84375 -10.109375 2.84375q-3.546875 0 -7.921875 -1.515625z" fill-rule="nonzero"/></g></svg>